<!--
{
  "dimensions": [60, 8],
  "tiles": [
    [ 2, 1, "#383838", 10 ],
    [ 3, 1, "#484848", 25 ],
    [ 4, 1, "#585858", 10 ],
    [ 5, 1, "#585858",  5 ],
    [ 1, 2, "#383838", 20 ],
    [ 1, 3, "#484848", 15 ],
    [ 1, 4, "#585858", 10 ],
    [ 1, 5, "#585858",  5 ]
  ],
  "fit_strategy": [2, 1],
  "tile_color_default": "#505050",
  "spacing_ratio": 12
}
-->
<svg xmlns="http://www.w3.org/2000/svg" viewBox="0 0 779 103">
<rect x="0" y="0" width="12" height="25" fill="#383838"></rect>
<rect x="13" y="0" width="38" height="12" fill="#484848"></rect>
<rect x="52" y="0" width="12" height="51" fill="#585858"></rect>
<rect x="65" y="0" width="38" height="12" fill="#484848"></rect>
<rect x="104" y="0" width="12" height="64" fill="#585858"></rect>
<rect x="117" y="0" width="25" height="12" fill="#383838"></rect>
<rect x="143" y="0" width="12" height="64" fill="#585858"></rect>
<rect x="156" y="0" width="12" height="38" fill="#484848"></rect>
<rect x="169" y="0" width="12" height="25" fill="#383838"></rect>
<rect x="182" y="0" width="64" height="12" fill="#585858"></rect>
<rect x="247" y="0" width="12" height="38" fill="#484848"></rect>
<rect x="260" y="0" width="12" height="25" fill="#383838"></rect>
<rect x="273" y="0" width="12" height="25" fill="#383838"></rect>
<rect x="286" y="0" width="12" height="25" fill="#383838"></rect>
<rect x="299" y="0" width="12" height="51" fill="#585858"></rect>
<rect x="312" y="0" width="12" height="25" fill="#383838"></rect>
<rect x="325" y="0" width="12" height="25" fill="#383838"></rect>
<rect x="338" y="0" width="25" height="12" fill="#383838"></rect>
<rect x="364" y="0" width="38" height="12" fill="#484848"></rect>
<rect x="403" y="0" width="25" height="12" fill="#383838"></rect>
<rect x="429" y="0" width="12" height="64" fill="#585858"></rect>
<rect x="442" y="0" width="51" height="12" fill="#585858"></rect>
<rect x="494" y="0" width="38" height="12" fill="#484848"></rect>
<rect x="533" y="0" width="51" height="12" fill="#585858"></rect>
<rect x="585" y="0" width="12" height="64" fill="#585858"></rect>
<rect x="598" y="0" width="38" height="12" fill="#484848"></rect>
<rect x="637" y="0" width="25" height="12" fill="#383838"></rect>
<rect x="663" y="0" width="25" height="12" fill="#383838"></rect>
<rect x="689" y="0" width="12" height="38" fill="#484848"></rect>
<rect x="702" y="0" width="12" height="38" fill="#484848"></rect>
<rect x="715" y="0" width="38" height="12" fill="#484848"></rect>
<rect x="754" y="0" width="12" height="51" fill="#585858"></rect>
<rect x="767" y="0" width="12" height="12" fill="#505050"></rect>
<rect x="13" y="13" width="12" height="25" fill="#383838"></rect>
<rect x="26" y="13" width="12" height="25" fill="#383838"></rect>
<rect x="39" y="13" width="12" height="12" fill="#505050"></rect>
<rect x="65" y="13" width="38" height="12" fill="#484848"></rect>
<rect x="117" y="13" width="12" height="25" fill="#383838"></rect>
<rect x="130" y="13" width="12" height="51" fill="#585858"></rect>
<rect x="182" y="13" width="12" height="51" fill="#585858"></rect>
<rect x="195" y="13" width="38" height="12" fill="#484848"></rect>
<rect x="234" y="13" width="12" height="25" fill="#383838"></rect>
<rect x="338" y="13" width="25" height="12" fill="#383838"></rect>
<rect x="364" y="13" width="12" height="38" fill="#484848"></rect>
<rect x="377" y="13" width="51" height="12" fill="#585858"></rect>
<rect x="442" y="13" width="12" height="51" fill="#585858"></rect>
<rect x="455" y="13" width="12" height="51" fill="#585858"></rect>
<rect x="468" y="13" width="12" height="25" fill="#383838"></rect>
<rect x="481" y="13" width="12" height="38" fill="#484848"></rect>
<rect x="494" y="13" width="38" height="12" fill="#484848"></rect>
<rect x="533" y="13" width="38" height="12" fill="#484848"></rect>
<rect x="572" y="13" width="12" height="51" fill="#585858"></rect>
<rect x="598" y="13" width="12" height="38" fill="#484848"></rect>
<rect x="611" y="13" width="12" height="64" fill="#585858"></rect>
<rect x="624" y="13" width="25" height="12" fill="#383838"></rect>
<rect x="650" y="13" width="25" height="12" fill="#383838"></rect>
<rect x="676" y="13" width="12" height="12" fill="#505050"></rect>
<rect x="715" y="13" width="38" height="12" fill="#484848"></rect>
<rect x="767" y="13" width="12" height="12" fill="#505050"></rect>
<rect x="0" y="26" width="12" height="12" fill="#505050"></rect>
<rect x="39" y="26" width="12" height="25" fill="#383838"></rect>
<rect x="65" y="26" width="25" height="12" fill="#383838"></rect>
<rect x="91" y="26" width="12" height="12" fill="#505050"></rect>
<rect x="169" y="26" width="12" height="12" fill="#505050"></rect>
<rect x="195" y="26" width="25" height="12" fill="#383838"></rect>
<rect x="221" y="26" width="12" height="25" fill="#383838"></rect>
<rect x="260" y="26" width="12" height="51" fill="#585858"></rect>
<rect x="273" y="26" width="25" height="12" fill="#383838"></rect>
<rect x="312" y="26" width="12" height="64" fill="#585858"></rect>
<rect x="325" y="26" width="25" height="12" fill="#383838"></rect>
<rect x="351" y="26" width="12" height="25" fill="#383838"></rect>
<rect x="377" y="26" width="51" height="12" fill="#585858"></rect>
<rect x="494" y="26" width="51" height="12" fill="#585858"></rect>
<rect x="546" y="26" width="25" height="12" fill="#383838"></rect>
<rect x="624" y="26" width="12" height="38" fill="#484848"></rect>
<rect x="637" y="26" width="12" height="38" fill="#484848"></rect>
<rect x="650" y="26" width="38" height="12" fill="#484848"></rect>
<rect x="715" y="26" width="38" height="12" fill="#484848"></rect>
<rect x="767" y="26" width="12" height="25" fill="#383838"></rect>
<rect x="0" y="39" width="38" height="12" fill="#484848"></rect>
<rect x="65" y="39" width="12" height="51" fill="#585858"></rect>
<rect x="78" y="39" width="25" height="12" fill="#383838"></rect>
<rect x="117" y="39" width="12" height="12" fill="#505050"></rect>
<rect x="156" y="39" width="25" height="12" fill="#383838"></rect>
<rect x="195" y="39" width="25" height="12" fill="#383838"></rect>
<rect x="234" y="39" width="25" height="12" fill="#383838"></rect>
<rect x="273" y="39" width="25" height="12" fill="#383838"></rect>
<rect x="325" y="39" width="25" height="12" fill="#383838"></rect>
<rect x="377" y="39" width="25" height="12" fill="#383838"></rect>
<rect x="403" y="39" width="12" height="64" fill="#585858"></rect>
<rect x="416" y="39" width="12" height="51" fill="#585858"></rect>
<rect x="468" y="39" width="12" height="12" fill="#505050"></rect>
<rect x="494" y="39" width="25" height="12" fill="#383838"></rect>
<rect x="520" y="39" width="38" height="12" fill="#484848"></rect>
<rect x="559" y="39" width="12" height="38" fill="#484848"></rect>
<rect x="650" y="39" width="12" height="38" fill="#484848"></rect>
<rect x="663" y="39" width="12" height="25" fill="#383838"></rect>
<rect x="676" y="39" width="12" height="25" fill="#383838"></rect>
<rect x="689" y="39" width="25" height="12" fill="#383838"></rect>
<rect x="715" y="39" width="38" height="12" fill="#484848"></rect>
<rect x="0" y="52" width="38" height="12" fill="#484848"></rect>
<rect x="39" y="52" width="25" height="12" fill="#383838"></rect>
<rect x="78" y="52" width="12" height="51" fill="#585858"></rect>
<rect x="91" y="52" width="12" height="51" fill="#585858"></rect>
<rect x="117" y="52" width="12" height="12" fill="#505050"></rect>
<rect x="156" y="52" width="25" height="12" fill="#383838"></rect>
<rect x="195" y="52" width="12" height="51" fill="#585858"></rect>
<rect x="208" y="52" width="12" height="51" fill="#585858"></rect>
<rect x="221" y="52" width="25" height="12" fill="#383838"></rect>
<rect x="247" y="52" width="12" height="38" fill="#484848"></rect>
<rect x="273" y="52" width="12" height="25" fill="#383838"></rect>
<rect x="286" y="52" width="12" height="25" fill="#383838"></rect>
<rect x="299" y="52" width="12" height="38" fill="#484848"></rect>
<rect x="325" y="52" width="38" height="12" fill="#484848"></rect>
<rect x="364" y="52" width="12" height="51" fill="#585858"></rect>
<rect x="377" y="52" width="12" height="38" fill="#484848"></rect>
<rect x="390" y="52" width="12" height="12" fill="#505050"></rect>
<rect x="468" y="52" width="12" height="51" fill="#585858"></rect>
<rect x="481" y="52" width="25" height="12" fill="#383838"></rect>
<rect x="507" y="52" width="51" height="12" fill="#585858"></rect>
<rect x="598" y="52" width="12" height="51" fill="#585858"></rect>
<rect x="689" y="52" width="12" height="38" fill="#484848"></rect>
<rect x="702" y="52" width="12" height="51" fill="#585858"></rect>
<rect x="715" y="52" width="51" height="12" fill="#585858"></rect>
<rect x="767" y="52" width="12" height="12" fill="#505050"></rect>
<rect x="0" y="65" width="12" height="38" fill="#484848"></rect>
<rect x="13" y="65" width="12" height="38" fill="#484848"></rect>
<rect x="26" y="65" width="25" height="12" fill="#383838"></rect>
<rect x="52" y="65" width="12" height="12" fill="#505050"></rect>
<rect x="104" y="65" width="12" height="25" fill="#383838"></rect>
<rect x="117" y="65" width="38" height="12" fill="#484848"></rect>
<rect x="156" y="65" width="12" height="38" fill="#484848"></rect>
<rect x="169" y="65" width="12" height="38" fill="#484848"></rect>
<rect x="182" y="65" width="12" height="38" fill="#484848"></rect>
<rect x="221" y="65" width="12" height="38" fill="#484848"></rect>
<rect x="234" y="65" width="12" height="12" fill="#505050"></rect>
<rect x="325" y="65" width="38" height="12" fill="#484848"></rect>
<rect x="390" y="65" width="12" height="12" fill="#505050"></rect>
<rect x="429" y="65" width="12" height="38" fill="#484848"></rect>
<rect x="442" y="65" width="25" height="12" fill="#383838"></rect>
<rect x="481" y="65" width="38" height="12" fill="#484848"></rect>
<rect x="520" y="65" width="38" height="12" fill="#484848"></rect>
<rect x="572" y="65" width="25" height="12" fill="#383838"></rect>
<rect x="624" y="65" width="25" height="12" fill="#383838"></rect>
<rect x="663" y="65" width="25" height="12" fill="#383838"></rect>
<rect x="715" y="65" width="51" height="12" fill="#585858"></rect>
<rect x="767" y="65" width="12" height="12" fill="#505050"></rect>
<rect x="26" y="78" width="38" height="12" fill="#484848"></rect>
<rect x="117" y="78" width="38" height="12" fill="#484848"></rect>
<rect x="234" y="78" width="12" height="25" fill="#383838"></rect>
<rect x="260" y="78" width="12" height="25" fill="#383838"></rect>
<rect x="273" y="78" width="25" height="12" fill="#383838"></rect>
<rect x="325" y="78" width="38" height="12" fill="#484848"></rect>
<rect x="390" y="78" width="12" height="12" fill="#505050"></rect>
<rect x="442" y="78" width="25" height="12" fill="#383838"></rect>
<rect x="481" y="78" width="38" height="12" fill="#484848"></rect>
<rect x="520" y="78" width="12" height="25" fill="#383838"></rect>
<rect x="533" y="78" width="12" height="25" fill="#383838"></rect>
<rect x="546" y="78" width="25" height="12" fill="#383838"></rect>
<rect x="572" y="78" width="12" height="25" fill="#383838"></rect>
<rect x="585" y="78" width="12" height="12" fill="#505050"></rect>
<rect x="611" y="78" width="51" height="12" fill="#585858"></rect>
<rect x="663" y="78" width="25" height="12" fill="#383838"></rect>
<rect x="715" y="78" width="12" height="25" fill="#383838"></rect>
<rect x="728" y="78" width="51" height="12" fill="#585858"></rect>
<rect x="26" y="91" width="12" height="12" fill="#505050"></rect>
<rect x="39" y="91" width="12" height="12" fill="#505050"></rect>
<rect x="52" y="91" width="12" height="12" fill="#505050"></rect>
<rect x="65" y="91" width="12" height="12" fill="#505050"></rect>
<rect x="104" y="91" width="25" height="12" fill="#383838"></rect>
<rect x="130" y="91" width="12" height="12" fill="#505050"></rect>
<rect x="143" y="91" width="12" height="12" fill="#505050"></rect>
<rect x="247" y="91" width="12" height="12" fill="#505050"></rect>
<rect x="273" y="91" width="64" height="12" fill="#585858"></rect>
<rect x="338" y="91" width="12" height="12" fill="#505050"></rect>
<rect x="351" y="91" width="12" height="12" fill="#505050"></rect>
<rect x="377" y="91" width="25" height="12" fill="#383838"></rect>
<rect x="416" y="91" width="12" height="12" fill="#505050"></rect>
<rect x="442" y="91" width="12" height="12" fill="#505050"></rect>
<rect x="455" y="91" width="12" height="12" fill="#505050"></rect>
<rect x="481" y="91" width="12" height="12" fill="#505050"></rect>
<rect x="494" y="91" width="25" height="12" fill="#383838"></rect>
<rect x="546" y="91" width="12" height="12" fill="#505050"></rect>
<rect x="559" y="91" width="12" height="12" fill="#505050"></rect>
<rect x="585" y="91" width="12" height="12" fill="#505050"></rect>
<rect x="611" y="91" width="12" height="12" fill="#505050"></rect>
<rect x="624" y="91" width="38" height="12" fill="#484848"></rect>
<rect x="663" y="91" width="12" height="12" fill="#505050"></rect>
<rect x="676" y="91" width="12" height="12" fill="#505050"></rect>
<rect x="689" y="91" width="12" height="12" fill="#505050"></rect>
<rect x="728" y="91" width="51" height="12" fill="#585858"></rect>
</svg>
