<!--
{
  "dimensions": [24, 24],
  "tiles": [
    [ 2, 1, "#383838", 10 ],
    [ 3, 1, "#484848", 25 ],
    [ 4, 1, "#585858", 10 ],
    [ 5, 1, "#585858",  5 ],
    [ 1, 2, "#383838", 20 ],
    [ 1, 3, "#484848", 15 ],
    [ 1, 4, "#585858", 10 ],
    [ 1, 5, "#585858",  5 ]
  ],
  "fit_strategy": [4, 1],
  "tile_color_default": "#505050",
  "spacing_ratio": 12
}
-->
<svg xmlns="http://www.w3.org/2000/svg" viewBox="0 0 311 311">
<rect x="0" y="0" width="25" height="12" fill="#383838"></rect>
<rect x="26" y="0" width="12" height="38" fill="#484848"></rect>
<rect x="39" y="0" width="51" height="12" fill="#585858"></rect>
<rect x="91" y="0" width="38" height="12" fill="#484848"></rect>
<rect x="130" y="0" width="51" height="12" fill="#585858"></rect>
<rect x="182" y="0" width="12" height="38" fill="#484848"></rect>
<rect x="195" y="0" width="12" height="64" fill="#585858"></rect>
<rect x="208" y="0" width="38" height="12" fill="#484848"></rect>
<rect x="247" y="0" width="12" height="38" fill="#484848"></rect>
<rect x="260" y="0" width="12" height="25" fill="#383838"></rect>
<rect x="273" y="0" width="38" height="12" fill="#484848"></rect>
<rect x="0" y="13" width="12" height="25" fill="#383838"></rect>
<rect x="13" y="13" width="12" height="38" fill="#484848"></rect>
<rect x="39" y="13" width="25" height="12" fill="#383838"></rect>
<rect x="65" y="13" width="64" height="12" fill="#585858"></rect>
<rect x="130" y="13" width="12" height="51" fill="#585858"></rect>
<rect x="143" y="13" width="38" height="12" fill="#484848"></rect>
<rect x="208" y="13" width="12" height="25" fill="#383838"></rect>
<rect x="221" y="13" width="25" height="12" fill="#383838"></rect>
<rect x="273" y="13" width="38" height="12" fill="#484848"></rect>
<rect x="39" y="26" width="12" height="25" fill="#383838"></rect>
<rect x="52" y="26" width="25" height="12" fill="#383838"></rect>
<rect x="78" y="26" width="38" height="12" fill="#484848"></rect>
<rect x="117" y="26" width="12" height="38" fill="#484848"></rect>
<rect x="143" y="26" width="12" height="64" fill="#585858"></rect>
<rect x="156" y="26" width="12" height="38" fill="#484848"></rect>
<rect x="169" y="26" width="12" height="12" fill="#505050"></rect>
<rect x="221" y="26" width="12" height="38" fill="#484848"></rect>
<rect x="234" y="26" width="12" height="51" fill="#585858"></rect>
<rect x="260" y="26" width="12" height="25" fill="#383838"></rect>
<rect x="273" y="26" width="38" height="12" fill="#484848"></rect>
<rect x="0" y="39" width="12" height="25" fill="#383838"></rect>
<rect x="26" y="39" width="12" height="25" fill="#383838"></rect>
<rect x="52" y="39" width="12" height="64" fill="#585858"></rect>
<rect x="65" y="39" width="38" height="12" fill="#484848"></rect>
<rect x="104" y="39" width="12" height="38" fill="#484848"></rect>
<rect x="169" y="39" width="25" height="12" fill="#383838"></rect>
<rect x="208" y="39" width="12" height="25" fill="#383838"></rect>
<rect x="247" y="39" width="12" height="12" fill="#505050"></rect>
<rect x="273" y="39" width="12" height="25" fill="#383838"></rect>
<rect x="286" y="39" width="25" height="12" fill="#383838"></rect>
<rect x="13" y="52" width="12" height="12" fill="#505050"></rect>
<rect x="39" y="52" width="12" height="12" fill="#505050"></rect>
<rect x="65" y="52" width="12" height="25" fill="#383838"></rect>
<rect x="78" y="52" width="12" height="38" fill="#484848"></rect>
<rect x="91" y="52" width="12" height="25" fill="#383838"></rect>
<rect x="169" y="52" width="25" height="12" fill="#383838"></rect>
<rect x="247" y="52" width="25" height="12" fill="#383838"></rect>
<rect x="286" y="52" width="12" height="25" fill="#383838"></rect>
<rect x="299" y="52" width="12" height="12" fill="#505050"></rect>
<rect x="0" y="65" width="12" height="51" fill="#585858"></rect>
<rect x="13" y="65" width="38" height="12" fill="#484848"></rect>
<rect x="117" y="65" width="25" height="12" fill="#383838"></rect>
<rect x="156" y="65" width="38" height="12" fill="#484848"></rect>
<rect x="195" y="65" width="12" height="25" fill="#383838"></rect>
<rect x="208" y="65" width="12" height="25" fill="#383838"></rect>
<rect x="221" y="65" width="12" height="12" fill="#505050"></rect>
<rect x="247" y="65" width="25" height="12" fill="#383838"></rect>
<rect x="273" y="65" width="12" height="38" fill="#484848"></rect>
<rect x="299" y="65" width="12" height="25" fill="#383838"></rect>
<rect x="13" y="78" width="12" height="51" fill="#585858"></rect>
<rect x="26" y="78" width="25" height="12" fill="#383838"></rect>
<rect x="65" y="78" width="12" height="25" fill="#383838"></rect>
<rect x="91" y="78" width="12" height="51" fill="#585858"></rect>
<rect x="104" y="78" width="38" height="12" fill="#484848"></rect>
<rect x="156" y="78" width="25" height="12" fill="#383838"></rect>
<rect x="182" y="78" width="12" height="25" fill="#383838"></rect>
<rect x="221" y="78" width="38" height="12" fill="#484848"></rect>
<rect x="260" y="78" width="12" height="12" fill="#505050"></rect>
<rect x="286" y="78" width="12" height="12" fill="#505050"></rect>
<rect x="26" y="91" width="12" height="25" fill="#383838"></rect>
<rect x="39" y="91" width="12" height="25" fill="#383838"></rect>
<rect x="78" y="91" width="12" height="25" fill="#383838"></rect>
<rect x="104" y="91" width="12" height="25" fill="#383838"></rect>
<rect x="117" y="91" width="25" height="12" fill="#383838"></rect>
<rect x="143" y="91" width="38" height="12" fill="#484848"></rect>
<rect x="195" y="91" width="12" height="25" fill="#383838"></rect>
<rect x="208" y="91" width="12" height="25" fill="#383838"></rect>
<rect x="221" y="91" width="12" height="51" fill="#585858"></rect>
<rect x="234" y="91" width="12" height="38" fill="#484848"></rect>
<rect x="247" y="91" width="12" height="51" fill="#585858"></rect>
<rect x="260" y="91" width="12" height="51" fill="#585858"></rect>
<rect x="286" y="91" width="12" height="25" fill="#383838"></rect>
<rect x="299" y="91" width="12" height="64" fill="#585858"></rect>
<rect x="52" y="104" width="25" height="12" fill="#383838"></rect>
<rect x="117" y="104" width="12" height="51" fill="#585858"></rect>
<rect x="130" y="104" width="51" height="12" fill="#585858"></rect>
<rect x="182" y="104" width="12" height="38" fill="#484848"></rect>
<rect x="273" y="104" width="12" height="12" fill="#505050"></rect>
<rect x="0" y="117" width="12" height="12" fill="#505050"></rect>
<rect x="26" y="117" width="38" height="12" fill="#484848"></rect>
<rect x="65" y="117" width="25" height="12" fill="#383838"></rect>
<rect x="104" y="117" width="12" height="51" fill="#585858"></rect>
<rect x="130" y="117" width="12" height="25" fill="#383838"></rect>
<rect x="143" y="117" width="12" height="25" fill="#383838"></rect>
<rect x="156" y="117" width="25" height="12" fill="#383838"></rect>
<rect x="195" y="117" width="12" height="38" fill="#484848"></rect>
<rect x="208" y="117" width="12" height="38" fill="#484848"></rect>
<rect x="273" y="117" width="25" height="12" fill="#383838"></rect>
<rect x="0" y="130" width="38" height="12" fill="#484848"></rect>
<rect x="39" y="130" width="25" height="12" fill="#383838"></rect>
<rect x="65" y="130" width="38" height="12" fill="#484848"></rect>
<rect x="156" y="130" width="25" height="12" fill="#383838"></rect>
<rect x="234" y="130" width="12" height="38" fill="#484848"></rect>
<rect x="273" y="130" width="25" height="12" fill="#383838"></rect>
<rect x="0" y="143" width="38" height="12" fill="#484848"></rect>
<rect x="39" y="143" width="51" height="12" fill="#585858"></rect>
<rect x="91" y="143" width="12" height="12" fill="#505050"></rect>
<rect x="130" y="143" width="38" height="12" fill="#484848"></rect>
<rect x="169" y="143" width="25" height="12" fill="#383838"></rect>
<rect x="221" y="143" width="12" height="12" fill="#505050"></rect>
<rect x="247" y="143" width="12" height="38" fill="#484848"></rect>
<rect x="260" y="143" width="12" height="64" fill="#585858"></rect>
<rect x="273" y="143" width="25" height="12" fill="#383838"></rect>
<rect x="0" y="156" width="25" height="12" fill="#383838"></rect>
<rect x="26" y="156" width="12" height="51" fill="#585858"></rect>
<rect x="39" y="156" width="25" height="12" fill="#383838"></rect>
<rect x="65" y="156" width="12" height="25" fill="#383838"></rect>
<rect x="78" y="156" width="12" height="38" fill="#484848"></rect>
<rect x="91" y="156" width="12" height="25" fill="#383838"></rect>
<rect x="117" y="156" width="38" height="12" fill="#484848"></rect>
<rect x="156" y="156" width="38" height="12" fill="#484848"></rect>
<rect x="195" y="156" width="38" height="12" fill="#484848"></rect>
<rect x="273" y="156" width="12" height="51" fill="#585858"></rect>
<rect x="286" y="156" width="12" height="38" fill="#484848"></rect>
<rect x="299" y="156" width="12" height="51" fill="#585858"></rect>
<rect x="0" y="169" width="12" height="51" fill="#585858"></rect>
<rect x="13" y="169" width="12" height="12" fill="#505050"></rect>
<rect x="39" y="169" width="12" height="38" fill="#484848"></rect>
<rect x="52" y="169" width="12" height="25" fill="#383838"></rect>
<rect x="104" y="169" width="12" height="51" fill="#585858"></rect>
<rect x="117" y="169" width="38" height="12" fill="#484848"></rect>
<rect x="156" y="169" width="38" height="12" fill="#484848"></rect>
<rect x="195" y="169" width="12" height="38" fill="#484848"></rect>
<rect x="208" y="169" width="12" height="38" fill="#484848"></rect>
<rect x="221" y="169" width="12" height="25" fill="#383838"></rect>
<rect x="234" y="169" width="12" height="12" fill="#505050"></rect>
<rect x="13" y="182" width="12" height="12" fill="#505050"></rect>
<rect x="65" y="182" width="12" height="38" fill="#484848"></rect>
<rect x="91" y="182" width="12" height="12" fill="#505050"></rect>
<rect x="117" y="182" width="12" height="51" fill="#585858"></rect>
<rect x="130" y="182" width="51" height="12" fill="#585858"></rect>
<rect x="182" y="182" width="12" height="12" fill="#505050"></rect>
<rect x="234" y="182" width="25" height="12" fill="#383838"></rect>
<rect x="13" y="195" width="12" height="12" fill="#505050"></rect>
<rect x="52" y="195" width="12" height="38" fill="#484848"></rect>
<rect x="78" y="195" width="25" height="12" fill="#383838"></rect>
<rect x="130" y="195" width="25" height="12" fill="#383838"></rect>
<rect x="156" y="195" width="12" height="25" fill="#383838"></rect>
<rect x="169" y="195" width="12" height="51" fill="#585858"></rect>
<rect x="182" y="195" width="12" height="12" fill="#505050"></rect>
<rect x="221" y="195" width="38" height="12" fill="#484848"></rect>
<rect x="286" y="195" width="12" height="38" fill="#484848"></rect>
<rect x="13" y="208" width="25" height="12" fill="#383838"></rect>
<rect x="39" y="208" width="12" height="51" fill="#585858"></rect>
<rect x="78" y="208" width="12" height="25" fill="#383838"></rect>
<rect x="91" y="208" width="12" height="64" fill="#585858"></rect>
<rect x="130" y="208" width="12" height="38" fill="#484848"></rect>
<rect x="143" y="208" width="12" height="25" fill="#383838"></rect>
<rect x="182" y="208" width="12" height="64" fill="#585858"></rect>
<rect x="195" y="208" width="38" height="12" fill="#484848"></rect>
<rect x="234" y="208" width="38" height="12" fill="#484848"></rect>
<rect x="273" y="208" width="12" height="25" fill="#383838"></rect>
<rect x="299" y="208" width="12" height="25" fill="#383838"></rect>
<rect x="0" y="221" width="38" height="12" fill="#484848"></rect>
<rect x="65" y="221" width="12" height="38" fill="#484848"></rect>
<rect x="104" y="221" width="12" height="12" fill="#505050"></rect>
<rect x="156" y="221" width="12" height="38" fill="#484848"></rect>
<rect x="195" y="221" width="38" height="12" fill="#484848"></rect>
<rect x="234" y="221" width="38" height="12" fill="#484848"></rect>
<rect x="0" y="234" width="25" height="12" fill="#383838"></rect>
<rect x="26" y="234" width="12" height="25" fill="#383838"></rect>
<rect x="52" y="234" width="12" height="25" fill="#383838"></rect>
<rect x="78" y="234" width="12" height="12" fill="#505050"></rect>
<rect x="104" y="234" width="12" height="38" fill="#484848"></rect>
<rect x="117" y="234" width="12" height="25" fill="#383838"></rect>
<rect x="143" y="234" width="12" height="12" fill="#505050"></rect>
<rect x="195" y="234" width="12" height="64" fill="#585858"></rect>
<rect x="208" y="234" width="12" height="25" fill="#383838"></rect>
<rect x="221" y="234" width="12" height="38" fill="#484848"></rect>
<rect x="234" y="234" width="12" height="25" fill="#383838"></rect>
<rect x="247" y="234" width="12" height="64" fill="#585858"></rect>
<rect x="260" y="234" width="38" height="12" fill="#484848"></rect>
<rect x="299" y="234" width="12" height="12" fill="#505050"></rect>
<rect x="0" y="247" width="12" height="64" fill="#585858"></rect>
<rect x="13" y="247" width="12" height="38" fill="#484848"></rect>
<rect x="78" y="247" width="12" height="25" fill="#383838"></rect>
<rect x="130" y="247" width="12" height="38" fill="#484848"></rect>
<rect x="143" y="247" width="12" height="25" fill="#383838"></rect>
<rect x="169" y="247" width="12" height="38" fill="#484848"></rect>
<rect x="260" y="247" width="12" height="25" fill="#383838"></rect>
<rect x="273" y="247" width="38" height="12" fill="#484848"></rect>
<rect x="26" y="260" width="51" height="12" fill="#585858"></rect>
<rect x="117" y="260" width="12" height="25" fill="#383838"></rect>
<rect x="156" y="260" width="12" height="38" fill="#484848"></rect>
<rect x="208" y="260" width="12" height="38" fill="#484848"></rect>
<rect x="234" y="260" width="12" height="12" fill="#505050"></rect>
<rect x="273" y="260" width="12" height="51" fill="#585858"></rect>
<rect x="286" y="260" width="25" height="12" fill="#383838"></rect>
<rect x="26" y="273" width="12" height="25" fill="#383838"></rect>
<rect x="39" y="273" width="12" height="38" fill="#484848"></rect>
<rect x="52" y="273" width="51" height="12" fill="#585858"></rect>
<rect x="104" y="273" width="12" height="12" fill="#505050"></rect>
<rect x="143" y="273" width="12" height="12" fill="#505050"></rect>
<rect x="182" y="273" width="12" height="25" fill="#383838"></rect>
<rect x="221" y="273" width="12" height="38" fill="#484848"></rect>
<rect x="234" y="273" width="12" height="12" fill="#505050"></rect>
<rect x="260" y="273" width="12" height="25" fill="#383838"></rect>
<rect x="286" y="273" width="12" height="38" fill="#484848"></rect>
<rect x="299" y="273" width="12" height="38" fill="#484848"></rect>
<rect x="13" y="286" width="12" height="12" fill="#505050"></rect>
<rect x="52" y="286" width="38" height="12" fill="#484848"></rect>
<rect x="91" y="286" width="64" height="12" fill="#585858"></rect>
<rect x="169" y="286" width="12" height="25" fill="#383838"></rect>
<rect x="234" y="286" width="12" height="25" fill="#383838"></rect>
<rect x="13" y="299" width="12" height="12" fill="#505050"></rect>
<rect x="26" y="299" width="12" height="12" fill="#505050"></rect>
<rect x="52" y="299" width="12" height="12" fill="#505050"></rect>
<rect x="65" y="299" width="38" height="12" fill="#484848"></rect>
<rect x="104" y="299" width="25" height="12" fill="#383838"></rect>
<rect x="130" y="299" width="12" height="12" fill="#505050"></rect>
<rect x="143" y="299" width="25" height="12" fill="#383838"></rect>
<rect x="182" y="299" width="38" height="12" fill="#484848"></rect>
<rect x="247" y="299" width="12" height="12" fill="#505050"></rect>
<rect x="260" y="299" width="12" height="12" fill="#505050"></rect>
</svg>
