<svg xmlns="http://www.w3.org/2000/svg" viewBox="0 0 203 203">
<rect x="0" y="0" width="16" height="33" fill="#999FB9"></rect>
<rect x="17" y="0" width="33" height="16" fill="#C69F9F"></rect>
<rect x="51" y="0" width="50" height="16" fill="#838CC3"></rect>
<rect x="102" y="0" width="16" height="33" fill="#999FB9"></rect>
<rect x="119" y="0" width="16" height="50" fill="#A68CB3"></rect>
<rect x="136" y="0" width="50" height="16" fill="#838CC3"></rect>
<rect x="187" y="0" width="16" height="33" fill="#999FB9"></rect>
<rect x="17" y="17" width="50" height="16" fill="#838CC3"></rect>
<rect x="68" y="17" width="16" height="33" fill="#999FB9"></rect>
<rect x="85" y="17" width="16" height="50" fill="#A68CB3"></rect>
<rect x="136" y="17" width="16" height="33" fill="#999FB9"></rect>
<rect x="153" y="17" width="33" height="16" fill="#C69F9F"></rect>
<rect x="0" y="34" width="33" height="16" fill="#C69F9F"></rect>
<rect x="34" y="34" width="16" height="50" fill="#A68CB3"></rect>
<rect x="51" y="34" width="16" height="50" fill="#A68CB3"></rect>
<rect x="102" y="34" width="16" height="50" fill="#A68CB3"></rect>
<rect x="153" y="34" width="16" height="50" fill="#A68CB3"></rect>
<rect x="170" y="34" width="16" height="50" fill="#A68CB3"></rect>
<rect x="187" y="34" width="16" height="33" fill="#999FB9"></rect>
<rect x="0" y="51" width="33" height="16" fill="#C69F9F"></rect>
<rect x="68" y="51" width="16" height="33" fill="#999FB9"></rect>
<rect x="119" y="51" width="16" height="33" fill="#999FB9"></rect>
<rect x="136" y="51" width="16" height="50" fill="#A68CB3"></rect>
<rect x="0" y="68" width="33" height="33" fill="#8F7FDF"></rect>
<rect x="85" y="68" width="16" height="33" fill="#999FB9"></rect>
<rect x="187" y="68" width="16" height="50" fill="#A68CB3"></rect>
<rect x="34" y="85" width="16" height="33" fill="#999FB9"></rect>
<rect x="51" y="85" width="16" height="50" fill="#A68CB3"></rect>
<rect x="68" y="85" width="16" height="50" fill="#A68CB3"></rect>
<rect x="102" y="85" width="33" height="16" fill="#C69F9F"></rect>
<rect x="153" y="85" width="33" height="33" fill="#8F7FDF"></rect>
<rect x="0" y="102" width="33" height="16" fill="#C69F9F"></rect>
<rect x="85" y="102" width="50" height="16" fill="#838CC3"></rect>
<rect x="136" y="102" width="16" height="33" fill="#999FB9"></rect>
<rect x="0" y="119" width="16" height="50" fill="#A68CB3"></rect>
<rect x="17" y="119" width="33" height="16" fill="#C69F9F"></rect>
<rect x="85" y="119" width="50" height="16" fill="#838CC3"></rect>
<rect x="153" y="119" width="33" height="16" fill="#C69F9F"></rect>
<rect x="187" y="119" width="16" height="33" fill="#999FB9"></rect>
<rect x="17" y="136" width="16" height="50" fill="#A68CB3"></rect>
<rect x="34" y="136" width="33" height="16" fill="#C69F9F"></rect>
<rect x="68" y="136" width="50" height="16" fill="#838CC3"></rect>
<rect x="119" y="136" width="16" height="50" fill="#A68CB3"></rect>
<rect x="136" y="136" width="50" height="16" fill="#838CC3"></rect>
<rect x="34" y="153" width="50" height="16" fill="#838CC3"></rect>
<rect x="85" y="153" width="16" height="33" fill="#999FB9"></rect>
<rect x="102" y="153" width="16" height="33" fill="#999FB9"></rect>
<rect x="136" y="153" width="16" height="33" fill="#999FB9"></rect>
<rect x="153" y="153" width="33" height="33" fill="#8F7FDF"></rect>
<rect x="187" y="153" width="16" height="50" fill="#A68CB3"></rect>
<rect x="0" y="170" width="16" height="33" fill="#999FB9"></rect>
<rect x="34" y="170" width="33" height="33" fill="#8F7FDF"></rect>
<rect x="68" y="170" width="16" height="33" fill="#999FB9"></rect>
<rect x="17" y="187" width="16" height="16" fill="pink"></rect>
<rect x="85" y="187" width="33" height="16" fill="#C69F9F"></rect>
<rect x="119" y="187" width="33" height="16" fill="#C69F9F"></rect>
<rect x="153" y="187" width="33" height="16" fill="#C69F9F"></rect>
</svg>
