<svg xmlns="http://www.w3.org/2000/svg" viewBox="0 0 83 35">
<rect x="0" y="0" width="5" height="5" fill="#cd51ad"></rect>
<rect x="6" y="0" width="5" height="5" fill="#2ac326"></rect>
<rect x="12" y="0" width="5" height="5" fill="#7f85d9"></rect>
<rect x="18" y="0" width="5" height="5" fill="#0c9cd3"></rect>
<rect x="24" y="0" width="5" height="5" fill="#ce703f"></rect>
<rect x="30" y="0" width="5" height="5" fill="#05cdfe"></rect>
<rect x="36" y="0" width="5" height="5" fill="#44df76"></rect>
<rect x="42" y="0" width="5" height="5" fill="#55f62b"></rect>
<rect x="48" y="0" width="5" height="5" fill="#794141"></rect>
<rect x="54" y="0" width="5" height="5" fill="#37fe93"></rect>
<rect x="60" y="0" width="5" height="5" fill="#680e8b"></rect>
<rect x="66" y="0" width="5" height="5" fill="#c63c08"></rect>
<rect x="72" y="0" width="5" height="5" fill="#c1754b"></rect>
<rect x="78" y="0" width="5" height="5" fill="#b64f43"></rect>
<rect x="0" y="6" width="5" height="5" fill="#78a4d3"></rect>
<rect x="6" y="6" width="5" height="5" fill="#9f43f0"></rect>
<rect x="12" y="6" width="5" height="5" fill="#1a8f68"></rect>
<rect x="18" y="6" width="5" height="5" fill="#f74f51"></rect>
<rect x="24" y="6" width="5" height="5" fill="#550a3c"></rect>
<rect x="30" y="6" width="5" height="5" fill="#52fbc5"></rect>
<rect x="36" y="6" width="5" height="5" fill="#906dec"></rect>
<rect x="42" y="6" width="5" height="5" fill="#66be85"></rect>
<rect x="48" y="6" width="5" height="5" fill="#897d4d"></rect>
<rect x="54" y="6" width="5" height="5" fill="#e15aa3"></rect>
<rect x="60" y="6" width="5" height="5" fill="#18cdad"></rect>
<rect x="66" y="6" width="5" height="5" fill="#98f4e5"></rect>
<rect x="72" y="6" width="5" height="5" fill="#44dd58"></rect>
<rect x="78" y="6" width="5" height="5" fill="#55fc11"></rect>
<rect x="0" y="12" width="5" height="5" fill="#cde114"></rect>
<rect x="6" y="12" width="5" height="5" fill="#dd7388"></rect>
<rect x="12" y="12" width="5" height="5" fill="#e9e351"></rect>
<rect x="18" y="12" width="5" height="5" fill="#cb0653"></rect>
<rect x="24" y="12" width="5" height="5" fill="#d48ce5"></rect>
<rect x="30" y="12" width="5" height="5" fill="#6b092c"></rect>
<rect x="36" y="12" width="5" height="5" fill="#4e95f8"></rect>
<rect x="42" y="12" width="5" height="5" fill="#30f02d"></rect>
<rect x="48" y="12" width="5" height="5" fill="#96f3c9"></rect>
<rect x="54" y="12" width="5" height="5" fill="#2c05eb"></rect>
<rect x="60" y="12" width="5" height="5" fill="#3022f9"></rect>
<rect x="66" y="12" width="5" height="5" fill="#53cbb2"></rect>
<rect x="72" y="12" width="5" height="5" fill="#2141b3"></rect>
<rect x="78" y="12" width="5" height="5" fill="#a99ee7"></rect>
<rect x="0" y="18" width="5" height="5" fill="#660b5f"></rect>
<rect x="6" y="18" width="5" height="5" fill="#207f49"></rect>
<rect x="12" y="18" width="5" height="5" fill="#7eadee"></rect>
<rect x="18" y="18" width="5" height="5" fill="#0ea614"></rect>
<rect x="24" y="18" width="5" height="5" fill="#d087c3"></rect>
<rect x="30" y="18" width="5" height="5" fill="#f0b3d2"></rect>
<rect x="36" y="18" width="5" height="5" fill="#847665"></rect>
<rect x="42" y="18" width="5" height="5" fill="#feff4f"></rect>
<rect x="48" y="18" width="5" height="5" fill="#7a6655"></rect>
<rect x="54" y="18" width="5" height="5" fill="#d1b12c"></rect>
<rect x="60" y="18" width="5" height="5" fill="#6a292f"></rect>
<rect x="66" y="18" width="5" height="5" fill="#05c03b"></rect>
<rect x="72" y="18" width="5" height="5" fill="#5c85f2"></rect>
<rect x="78" y="18" width="5" height="5" fill="#715a04"></rect>
<rect x="0" y="24" width="5" height="5" fill="#e47784"></rect>
<rect x="6" y="24" width="5" height="5" fill="#4e9bbb"></rect>
<rect x="12" y="24" width="5" height="5" fill="#fbcf96"></rect>
<rect x="18" y="24" width="5" height="5" fill="#827f8b"></rect>
<rect x="24" y="24" width="5" height="5" fill="#01a6d5"></rect>
<rect x="30" y="24" width="5" height="5" fill="#af2e97"></rect>
<rect x="36" y="24" width="5" height="5" fill="#8d888a"></rect>
<rect x="42" y="24" width="5" height="5" fill="#d147b5"></rect>
<rect x="48" y="24" width="5" height="5" fill="#31440b"></rect>
<rect x="54" y="24" width="5" height="5" fill="#8a86ac"></rect>
<rect x="60" y="24" width="5" height="5" fill="#3ed55a"></rect>
<rect x="66" y="24" width="5" height="5" fill="#1de5a4"></rect>
<rect x="72" y="24" width="5" height="5" fill="#6e56c5"></rect>
<rect x="78" y="24" width="5" height="5" fill="#3b00aa"></rect>
<rect x="0" y="30" width="5" height="5" fill="#efe997"></rect>
<rect x="6" y="30" width="5" height="5" fill="#0e19cb"></rect>
<rect x="12" y="30" width="5" height="5" fill="#a848da"></rect>
<rect x="18" y="30" width="5" height="5" fill="#8dcba1"></rect>
<rect x="24" y="30" width="5" height="5" fill="#ac60ff"></rect>
<rect x="30" y="30" width="5" height="5" fill="#739551"></rect>
<rect x="36" y="30" width="5" height="5" fill="#6fa0d3"></rect>
<rect x="42" y="30" width="5" height="5" fill="#2725f7"></rect>
<rect x="48" y="30" width="5" height="5" fill="#970ef4"></rect>
<rect x="54" y="30" width="5" height="5" fill="#31a033"></rect>
<rect x="60" y="30" width="5" height="5" fill="#7352e9"></rect>
<rect x="66" y="30" width="5" height="5" fill="#fab436"></rect>
<rect x="72" y="30" width="5" height="5" fill="#b80ee6"></rect>
<rect x="78" y="30" width="5" height="5" fill="#63fab6"></rect>
</svg>
