<svg xmlns="http://www.w3.org/2000/svg" viewBox="0 0 14 6">
<rect x="0" y="0" width="1" height="1" fill="#317683"></rect>
<rect x="1" y="0" width="1" height="1" fill="#f7cbf6"></rect>
<rect x="2" y="0" width="1" height="1" fill="#c71190"></rect>
<rect x="3" y="0" width="1" height="1" fill="#60c1fc"></rect>
<rect x="4" y="0" width="1" height="1" fill="#81f596"></rect>
<rect x="5" y="0" width="1" height="1" fill="#e8571f"></rect>
<rect x="6" y="0" width="1" height="1" fill="#3d1306"></rect>
<rect x="7" y="0" width="1" height="1" fill="#c0cd56"></rect>
<rect x="8" y="0" width="1" height="1" fill="#5fd1ad"></rect>
<rect x="9" y="0" width="1" height="1" fill="#3c4557"></rect>
<rect x="10" y="0" width="1" height="1" fill="#e2835d"></rect>
<rect x="11" y="0" width="1" height="1" fill="#199466"></rect>
<rect x="12" y="0" width="1" height="1" fill="#a6082b"></rect>
<rect x="13" y="0" width="1" height="1" fill="#9cb05b"></rect>
<rect x="0" y="1" width="1" height="1" fill="#e1cd5e"></rect>
<rect x="1" y="1" width="1" height="1" fill="#2a7ef6"></rect>
<rect x="2" y="1" width="1" height="1" fill="#9c762e"></rect>
<rect x="3" y="1" width="1" height="1" fill="#444540"></rect>
<rect x="4" y="1" width="1" height="1" fill="#a799ab"></rect>
<rect x="5" y="1" width="1" height="1" fill="#ffffa5"></rect>
<rect x="6" y="1" width="1" height="1" fill="#9a03b3"></rect>
<rect x="7" y="1" width="1" height="1" fill="#a85024"></rect>
<rect x="8" y="1" width="1" height="1" fill="#5ec1f8"></rect>
<rect x="9" y="1" width="1" height="1" fill="#fda8b4"></rect>
<rect x="10" y="1" width="1" height="1" fill="#786115"></rect>
<rect x="11" y="1" width="1" height="1" fill="#e23b79"></rect>
<rect x="12" y="1" width="1" height="1" fill="#839e2d"></rect>
<rect x="13" y="1" width="1" height="1" fill="#f9247c"></rect>
<rect x="0" y="2" width="1" height="1" fill="#748acc"></rect>
<rect x="1" y="2" width="1" height="1" fill="#7d0b58"></rect>
<rect x="2" y="2" width="1" height="1" fill="#424cc0"></rect>
<rect x="3" y="2" width="1" height="1" fill="#14fceb"></rect>
<rect x="4" y="2" width="1" height="1" fill="#5cb8a4"></rect>
<rect x="5" y="2" width="1" height="1" fill="#3fabcb"></rect>
<rect x="6" y="2" width="1" height="1" fill="#b09bbc"></rect>
<rect x="7" y="2" width="1" height="1" fill="#f9e828"></rect>
<rect x="8" y="2" width="1" height="1" fill="#88dd5c"></rect>
<rect x="9" y="2" width="1" height="1" fill="#6f7da6"></rect>
<rect x="10" y="2" width="1" height="1" fill="#419828"></rect>
<rect x="11" y="2" width="1" height="1" fill="#14afbd"></rect>
<rect x="12" y="2" width="1" height="1" fill="#06ba1d"></rect>
<rect x="13" y="2" width="1" height="1" fill="#15c320"></rect>
<rect x="0" y="3" width="1" height="1" fill="#5247bb"></rect>
<rect x="1" y="3" width="1" height="1" fill="#7c4293"></rect>
<rect x="2" y="3" width="1" height="1" fill="#b440c8"></rect>
<rect x="3" y="3" width="1" height="1" fill="#e4927d"></rect>
<rect x="4" y="3" width="1" height="1" fill="#83e05a"></rect>
<rect x="5" y="3" width="1" height="1" fill="#94623a"></rect>
<rect x="6" y="3" width="1" height="1" fill="#7703be"></rect>
<rect x="7" y="3" width="1" height="1" fill="#0c251e"></rect>
<rect x="8" y="3" width="1" height="1" fill="#3bbc4d"></rect>
<rect x="9" y="3" width="1" height="1" fill="#fe9c21"></rect>
<rect x="10" y="3" width="1" height="1" fill="#d2db25"></rect>
<rect x="11" y="3" width="1" height="1" fill="#3c3da2"></rect>
<rect x="12" y="3" width="1" height="1" fill="#7fc391"></rect>
<rect x="13" y="3" width="1" height="1" fill="#756a17"></rect>
<rect x="0" y="4" width="1" height="1" fill="#fe6159"></rect>
<rect x="1" y="4" width="1" height="1" fill="#3cad78"></rect>
<rect x="2" y="4" width="1" height="1" fill="#1da56a"></rect>
<rect x="3" y="4" width="1" height="1" fill="#0fa7e7"></rect>
<rect x="4" y="4" width="1" height="1" fill="#1b4e84"></rect>
<rect x="5" y="4" width="1" height="1" fill="#939207"></rect>
<rect x="6" y="4" width="1" height="1" fill="#f30ddd"></rect>
<rect x="7" y="4" width="1" height="1" fill="#cc34d6"></rect>
<rect x="8" y="4" width="1" height="1" fill="#702f99"></rect>
<rect x="9" y="4" width="1" height="1" fill="#42f9f1"></rect>
<rect x="10" y="4" width="1" height="1" fill="#4d725b"></rect>
<rect x="11" y="4" width="1" height="1" fill="#9e0f47"></rect>
<rect x="12" y="4" width="1" height="1" fill="#42c1fb"></rect>
<rect x="13" y="4" width="1" height="1" fill="#665898"></rect>
<rect x="0" y="5" width="1" height="1" fill="#a156e7"></rect>
<rect x="1" y="5" width="1" height="1" fill="#2ef908"></rect>
<rect x="2" y="5" width="1" height="1" fill="#94f873"></rect>
<rect x="3" y="5" width="1" height="1" fill="#ae13ac"></rect>
<rect x="4" y="5" width="1" height="1" fill="#72e0fa"></rect>
<rect x="5" y="5" width="1" height="1" fill="#8f42f9"></rect>
<rect x="6" y="5" width="1" height="1" fill="#4499fd"></rect>
<rect x="7" y="5" width="1" height="1" fill="#7777b3"></rect>
<rect x="8" y="5" width="1" height="1" fill="#484144"></rect>
<rect x="9" y="5" width="1" height="1" fill="#50cf8e"></rect>
<rect x="10" y="5" width="1" height="1" fill="#a26c52"></rect>
<rect x="11" y="5" width="1" height="1" fill="#6fb96f"></rect>
<rect x="12" y="5" width="1" height="1" fill="#1b9e08"></rect>
<rect x="13" y="5" width="1" height="1" fill="#bb08ee"></rect>
</svg>
