<svg xmlns="http://www.w3.org/2000/svg" viewBox="0 0 169 339">
<rect x="0" y="0" width="33" height="33" fill="darkslateblue"></rect>
<rect x="34" y="0" width="16" height="16" fill="#6F1C2A"></rect>
<rect x="51" y="0" width="16" height="16" fill="#6F1C2A"></rect>
<rect x="68" y="0" width="33" height="33" fill="#6F1C2A"></rect>
<rect x="102" y="0" width="16" height="16" fill="darkslateblue"></rect>
<rect x="119" y="0" width="33" height="33" fill="darkslategrey"></rect>
<rect x="153" y="0" width="16" height="16" fill="darkslategrey"></rect>
<rect x="34" y="17" width="33" height="33" fill="#6F1C2A"></rect>
<rect x="102" y="17" width="16" height="16" fill="darkslateblue"></rect>
<rect x="153" y="17" width="16" height="16" fill="darkslateblue"></rect>
<rect x="0" y="34" width="16" height="16" fill="darkslategrey"></rect>
<rect x="17" y="34" width="16" height="16" fill="darkslategrey"></rect>
<rect x="68" y="34" width="33" height="33" fill="darkslateblue"></rect>
<rect x="102" y="34" width="33" height="33" fill="darkslategrey"></rect>
<rect x="136" y="34" width="33" height="33" fill="darkslateblue"></rect>
<rect x="0" y="51" width="33" height="33" fill="darkslategrey"></rect>
<rect x="34" y="51" width="33" height="33" fill="darkslategrey"></rect>
<rect x="68" y="68" width="33" height="33" fill="darkslateblue"></rect>
<rect x="102" y="68" width="16" height="16" fill="darkslategrey"></rect>
<rect x="119" y="68" width="16" height="16" fill="#6F1C2A"></rect>
<rect x="136" y="68" width="33" height="33" fill="darkslategrey"></rect>
<rect x="0" y="85" width="33" height="33" fill="#6F1C2A"></rect>
<rect x="34" y="85" width="33" height="33" fill="#6F1C2A"></rect>
<rect x="102" y="85" width="33" height="33" fill="darkslateblue"></rect>
<rect x="68" y="102" width="33" height="33" fill="darkslategrey"></rect>
<rect x="136" y="102" width="33" height="33" fill="#6F1C2A"></rect>
<rect x="0" y="119" width="16" height="16" fill="#6F1C2A"></rect>
<rect x="17" y="119" width="33" height="33" fill="darkslateblue"></rect>
<rect x="51" y="119" width="16" height="16" fill="darkslategrey"></rect>
<rect x="102" y="119" width="16" height="16" fill="#6F1C2A"></rect>
<rect x="119" y="119" width="16" height="16" fill="darkslategrey"></rect>
<rect x="0" y="136" width="16" height="16" fill="darkslategrey"></rect>
<rect x="51" y="136" width="33" height="33" fill="darkslateblue"></rect>
<rect x="85" y="136" width="33" height="33" fill="darkslateblue"></rect>
<rect x="119" y="136" width="16" height="16" fill="darkslateblue"></rect>
<rect x="136" y="136" width="16" height="16" fill="#6F1C2A"></rect>
<rect x="153" y="136" width="16" height="16" fill="darkslategrey"></rect>
<rect x="0" y="153" width="16" height="16" fill="darkslateblue"></rect>
<rect x="17" y="153" width="33" height="33" fill="darkslateblue"></rect>
<rect x="119" y="153" width="16" height="16" fill="darkslategrey"></rect>
<rect x="136" y="153" width="33" height="33" fill="darkslateblue"></rect>
<rect x="0" y="170" width="16" height="16" fill="#6F1C2A"></rect>
<rect x="51" y="170" width="16" height="16" fill="darkslategrey"></rect>
<rect x="68" y="170" width="16" height="16" fill="darkslateblue"></rect>
<rect x="85" y="170" width="16" height="16" fill="darkslateblue"></rect>
<rect x="102" y="170" width="33" height="33" fill="#6F1C2A"></rect>
<rect x="0" y="187" width="33" height="33" fill="#6F1C2A"></rect>
<rect x="34" y="187" width="16" height="16" fill="darkslateblue"></rect>
<rect x="51" y="187" width="16" height="16" fill="#6F1C2A"></rect>
<rect x="68" y="187" width="33" height="33" fill="darkslateblue"></rect>
<rect x="136" y="187" width="16" height="16" fill="darkslategrey"></rect>
<rect x="153" y="187" width="16" height="16" fill="#6F1C2A"></rect>
<rect x="34" y="204" width="33" height="33" fill="#6F1C2A"></rect>
<rect x="102" y="204" width="33" height="33" fill="#6F1C2A"></rect>
<rect x="136" y="204" width="33" height="33" fill="darkslategrey"></rect>
<rect x="0" y="221" width="33" height="33" fill="darkslategrey"></rect>
<rect x="68" y="221" width="33" height="33" fill="#6F1C2A"></rect>
<rect x="34" y="238" width="16" height="16" fill="#6F1C2A"></rect>
<rect x="51" y="238" width="16" height="16" fill="darkslateblue"></rect>
<rect x="102" y="238" width="16" height="16" fill="darkslategrey"></rect>
<rect x="119" y="238" width="16" height="16" fill="#6F1C2A"></rect>
<rect x="136" y="238" width="33" height="33" fill="darkslategrey"></rect>
<rect x="0" y="255" width="16" height="16" fill="darkslateblue"></rect>
<rect x="17" y="255" width="33" height="33" fill="#6F1C2A"></rect>
<rect x="51" y="255" width="33" height="33" fill="darkslateblue"></rect>
<rect x="85" y="255" width="33" height="33" fill="darkslategrey"></rect>
<rect x="119" y="255" width="16" height="16" fill="darkslateblue"></rect>
<rect x="0" y="272" width="16" height="16" fill="darkslategrey"></rect>
<rect x="119" y="272" width="33" height="33" fill="darkslateblue"></rect>
<rect x="153" y="272" width="16" height="16" fill="#6F1C2A"></rect>
<rect x="0" y="289" width="33" height="33" fill="darkslateblue"></rect>
<rect x="34" y="289" width="16" height="16" fill="#6F1C2A"></rect>
<rect x="51" y="289" width="16" height="16" fill="darkslateblue"></rect>
<rect x="68" y="289" width="16" height="16" fill="darkslateblue"></rect>
<rect x="85" y="289" width="33" height="33" fill="darkslateblue"></rect>
<rect x="153" y="289" width="16" height="16" fill="darkslateblue"></rect>
<rect x="34" y="306" width="16" height="16" fill="darkslateblue"></rect>
<rect x="51" y="306" width="33" height="33" fill="darkslateblue"></rect>
<rect x="119" y="306" width="33" height="33" fill="darkslateblue"></rect>
<rect x="153" y="306" width="16" height="16" fill="darkslategrey"></rect>
<rect x="0" y="323" width="16" height="16" fill="#6F1C2A"></rect>
<rect x="17" y="323" width="16" height="16" fill="#6F1C2A"></rect>
<rect x="34" y="323" width="16" height="16" fill="#6F1C2A"></rect>
<rect x="85" y="323" width="16" height="16" fill="darkslateblue"></rect>
<rect x="102" y="323" width="16" height="16" fill="darkslategrey"></rect>
<rect x="153" y="323" width="16" height="16" fill="darkslateblue"></rect>
</svg>
